<svg xmlns="http://www.w3.org/2000/svg" viewBox="0 0 852.85 944.2"><title>nurture_nest_logo_heading</title><polyline points="591.55 238.3 556 229.67 590.01 261.21 623.8 292.62 523.54 246.63 530.84 262.74 529.54 273.89 470.73 251.83 575.68 324.32 518.7 303.32 419.71 258.07 484.79 307.54 466.62 308.94 493.4 336.31 560.58 387 536.14 384.78 517.51 385.92 401.29 330.73 472.37 383.66 477.82 398.7 379.11 353.62 366.1 358.01 403.14 391.29 443.98 426.77 348.1 383.32 421.87 437.81 457.56 470.31 472.6 490.9 318.83 414.02 399.93 472.74 337.39 448.53 307.92 443.41 325.39 465.4 319.86 474.11 388.19 525.45 329.69 503.58 291.97 493.71 440.74 591.5 330.17 539.56 423.62 605.42 374.75 589.11 404.33 618.09 409.04 632.71 311.49 588.29 248.02 563.55 300.22 605.59 242.31 584.06 359.63 663.7 370.97 682.16 329.19 669.95" style="fill:none;stroke:#6b8e23;stroke-miterlimit:10;stroke-width:7px"/><polyline points="666.68 348.03 640.21 322.78 653.89 367.1 667.46 411.19 603.62 321.24 601.89 338.83 595.19 347.84 555.29 299.34 609.93 414.58 571.08 367.91 507.98 279.22 539.61 354.61 523.16 346.74 532.68 383.83 565.52 461.32 545.46 447.18 528.75 438.85 455.7 332.94 490.79 414.33 487.99 430.07 425.05 341.67 411.59 338.97 427.02 386.31 444.65 437.46 383.34 351.89 419.98 435.96 434.64 481.96 437.37 507.31 342.64 363.85 383.51 455.25 341.46 403.01 318.49 383.84 322.64 411.62 313.49 416.39 346.99 495.03 307.27 446.84 279.54 419.43 359.48 578.5 289.69 478.24 337.69 581.99 303.52 543.43 314.65 583.32 311.42 598.34 249.15 511.1 206.55 457.93 230.74 520.45 191.35 472.85 253.13 600.48 253.72 622.13 223.65 590.67" style="fill:none;stroke:#6b8e23;stroke-miterlimit:10;stroke-width:7px"/><polyline points="676.88 480.62 666.58 445.52 656.28 490.74 645.97 535.71 635.67 425.89 625.37 440.26 615.06 444.71 604.76 382.75 594.46 509.88 584.15 450.04 573.85 341.68 563.54 422.78 553.24 407.75 542.93 444.62 532.63 528.15 522.33 505.88 512.02 490.31 501.72 362.07 491.41 450.09 481.11 462.33 470.8 354.3 460.49 345.23 450.19 393.95 439.88 447.06 429.58 342.3 419.27 433.43 408.96 480.59 398.66 503.91 388.35 332.3 378.05 431.89 367.74 365.63 357.44 337.54 347.13 363.67 336.83 363.23 326.52 448.08 316.22 386.48 305.91 348.88 295.6 526.61 285.3 404.89 274.99 518.75 264.68 468.27 254.37 508.38 244.06 519.76 233.75 413.08 223.45 345.74 213.14 411.97 202.83 351.05 192.52 492.47 182.2 511.52 171.88 469.23" style="fill:none;stroke:#6b8e23;stroke-miterlimit:10;stroke-width:7px"/><polyline points="619.42 600.55 628.05 565 596.52 599.01 565.11 632.8 611.1 532.54 594.99 539.84 583.84 538.54 605.89 479.73 533.41 584.68 554.41 527.7 599.66 428.71 550.19 493.79 548.78 475.62 521.42 502.4 470.73 569.59 472.94 545.14 471.8 526.51 527 410.3 474.06 481.38 459.02 486.82 504.11 388.11 499.72 375.1 466.44 412.14 430.96 452.98 474.41 357.11 419.92 430.87 387.42 466.56 366.83 481.61 443.71 327.83 384.99 408.93 409.2 346.39 414.32 316.92 392.33 334.39 383.62 328.86 332.27 397.19 354.15 338.69 364.02 300.97 266.23 449.74 318.16 339.17 252.31 432.62 268.62 383.75 239.64 413.33 225.02 418.04 269.43 320.49 294.18 257.02 252.14 309.22 273.66 251.31 194.03 368.63 175.57 379.97 187.78 338.19" style="fill:none;stroke:#6b8e23;stroke-miterlimit:10;stroke-width:7px"/><polyline points="509.7 675.68 534.95 649.21 490.63 662.9 446.53 676.46 536.49 612.63 518.89 610.89 509.88 604.19 558.39 564.29 443.14 618.93 489.81 580.08 578.5 516.98 503.12 548.61 510.99 532.16 473.9 541.68 396.41 574.52 410.55 554.46 418.88 537.75 524.78 464.7 443.4 499.79 427.65 496.99 516.05 434.05 518.75 420.59 471.41 436.02 420.26 453.65 505.83 392.35 421.76 428.98 375.77 443.64 350.42 446.37 493.88 351.64 402.48 392.51 454.71 350.46 473.89 327.49 446.1 331.64 441.33 322.49 362.7 355.99 410.89 316.27 438.3 288.54 279.23 368.48 379.49 298.69 275.73 346.69 314.29 312.52 274.4 323.65 259.39 320.42 346.63 258.15 399.8 215.55 337.28 239.74 384.88 200.35 257.25 262.13 235.6 262.72 267.06 232.65" style="fill:none;stroke:#6b8e23;stroke-miterlimit:10;stroke-width:7px"/><polyline points="377.11 685.88 412.21 675.58 366.98 665.28 322.02 654.97 431.84 644.67 417.47 634.37 413.01 624.06 474.97 613.76 347.84 603.46 407.69 593.15 516.04 582.85 434.94 572.54 449.98 562.24 413.1 551.93 329.58 541.63 351.85 531.33 367.42 521.02 495.66 510.72 407.63 500.41 395.4 490.11 503.43 479.8 512.5 469.5 463.78 459.19 410.67 448.88 515.43 438.58 424.3 428.27 377.14 417.96 353.82 407.66 525.43 397.35 425.84 387.05 492.1 376.74 520.19 366.44 494.06 356.14 494.5 345.83 409.65 335.53 471.25 325.22 508.85 314.91 331.12 304.6 452.84 294.3 338.98 283.99 389.46 273.68 349.35 263.37 337.97 253.06 444.65 242.76 511.99 232.45 445.76 222.14 506.68 211.83 365.26 201.52 346.21 191.2 388.49 180.88" style="fill:none;stroke:#6b8e23;stroke-miterlimit:10;stroke-width:7px"/><polyline points="257.18 628.43 292.73 637.05 258.71 605.52 224.92 574.11 325.18 620.1 317.89 603.99 319.19 592.84 378 614.9 273.05 542.41 330.03 563.41 429.02 608.66 363.94 559.19 382.11 557.78 355.33 530.42 288.14 479.73 312.58 481.94 331.22 480.81 447.43 536 376.35 483.06 370.91 468.02 469.62 513.11 482.62 508.72 445.59 475.44 404.75 439.96 500.62 483.41 426.86 428.92 391.17 396.42 376.12 375.83 529.9 452.71 448.8 393.99 511.34 418.2 540.81 423.32 523.33 401.33 528.87 392.62 460.54 341.28 519.04 363.15 556.75 373.02 407.99 275.23 518.55 327.17 425.11 261.31 473.98 277.62 444.4 248.64 439.69 234.02 537.23 278.44 600.71 303.18 548.51 261.14 606.42 282.67 489.1 203.03 477.76 184.57 519.54 196.78" style="fill:none;stroke:#6b8e23;stroke-miterlimit:10;stroke-width:7px"/><polyline points="182.05 518.7 208.52 543.95 194.83 499.63 181.27 455.53 245.1 545.49 246.84 527.89 253.54 518.88 293.44 567.39 238.8 452.14 277.64 498.82 340.75 587.5 309.12 512.12 325.56 519.99 316.05 482.9 283.21 405.41 303.27 419.55 319.98 427.88 393.02 533.79 357.94 452.4 360.74 436.65 423.68 525.05 437.14 527.75 421.71 480.41 404.08 429.26 465.38 514.84 428.75 430.76 414.09 384.77 411.35 359.42 506.08 502.88 465.21 411.48 507.27 463.72 530.23 482.89 526.09 455.11 535.24 450.33 501.74 371.7 541.46 419.89 569.19 447.3 489.25 288.23 559.03 388.49 511.04 284.73 545.2 323.29 534.08 283.41 537.31 268.39 599.58 355.63 642.17 408.8 617.99 346.28 657.38 393.88 595.59 266.25 595 244.6 625.08 276.06" style="fill:none;stroke:#6b8e23;stroke-miterlimit:10;stroke-width:7px"/><polyline points="171.84 386.11 182.15 421.21 192.45 375.99 202.75 331.02 213.06 440.84 223.36 426.47 233.66 422.01 243.97 483.97 254.27 356.85 264.57 416.69 274.88 525.04 285.18 443.94 295.49 458.98 305.79 422.11 316.1 338.58 326.4 360.85 336.71 376.42 347.01 504.66 357.32 416.63 367.62 404.4 377.93 512.43 388.23 521.5 398.54 472.78 408.85 419.67 419.15 524.43 429.46 433.3 439.76 386.14 450.07 362.82 460.38 534.43 470.68 434.84 480.98 501.1 491.29 529.19 501.59 503.06 511.9 503.5 522.2 418.65 532.51 480.25 542.82 517.85 553.12 340.12 563.43 461.84 573.74 347.98 584.05 398.46 594.36 358.35 604.66 346.97 614.97 453.65 625.28 520.99 635.59 454.76 645.9 515.68 656.21 374.26 666.53 355.21 676.84 397.5" style="fill:none;stroke:#6b8e23;stroke-miterlimit:10;stroke-width:7px"/><polyline points="229.3 266.18 220.67 301.73 252.21 267.72 283.62 233.92 237.63 334.18 253.74 326.89 264.89 328.19 242.83 387 315.32 282.05 294.32 339.03 249.07 438.02 298.54 372.94 299.94 391.11 327.31 364.33 377.99 297.14 375.78 321.58 376.92 340.22 321.73 456.43 374.66 385.35 389.7 379.91 344.62 478.62 349.01 491.63 382.29 454.59 417.77 413.75 374.32 509.62 428.81 435.86 461.31 400.17 481.9 385.12 405.02 538.9 463.74 457.8 439.53 520.34 434.41 549.81 456.4 532.33 465.1 537.87 516.45 469.54 494.58 528.04 484.7 565.75 582.5 416.99 530.56 527.55 596.42 434.11 580.11 482.98 609.09 453.4 623.71 448.69 579.29 546.24 554.55 609.71 596.59 557.51 575.06 615.42 654.7 498.1 673.16 486.76 660.95 528.54" style="fill:none;stroke:#6b8e23;stroke-miterlimit:10;stroke-width:7px"/><polyline points="339.03 191.05 313.78 217.52 358.1 203.83 402.19 190.27 312.24 254.1 329.83 255.84 338.84 262.54 290.34 302.44 405.58 247.8 358.91 286.64 270.22 349.75 345.61 318.12 337.74 334.56 374.83 325.05 452.32 292.21 438.18 312.27 429.85 328.98 323.94 402.02 405.33 366.94 421.07 369.74 332.67 432.68 329.97 446.14 377.31 430.71 428.46 413.08 342.89 474.38 426.96 437.75 472.96 423.09 498.31 420.35 354.84 515.09 446.25 474.21 394.01 516.27 374.84 539.23 402.62 535.09 407.39 544.24 486.03 510.74 437.83 550.46 410.43 578.19 569.5 498.25 469.24 568.04 572.99 520.04 534.43 554.2 574.32 543.08 589.34 546.31 502.1 608.58 448.93 651.18 511.44 626.99 463.85 666.38 591.48 604.6 613.13 604 581.67 634.08" style="fill:none;stroke:#6b8e23;stroke-miterlimit:10;stroke-width:7px"/><polyline points="471.62 180.84 436.51 191.15 481.74 201.45 526.71 211.75 416.89 222.06 431.26 232.36 435.71 242.66 373.75 252.97 500.88 263.27 441.04 273.57 332.68 283.88 413.78 294.18 398.75 304.49 435.62 314.79 519.15 325.1 496.88 335.4 481.31 345.71 353.07 356.01 441.09 366.32 453.33 376.62 345.3 386.93 336.23 397.23 384.94 407.54 438.06 417.85 333.3 428.15 424.42 438.46 471.59 448.76 494.91 459.07 323.3 469.38 422.89 479.68 356.63 489.99 328.54 500.29 354.67 510.59 354.23 520.9 439.08 531.2 377.48 541.51 339.88 551.82 517.61 562.12 395.89 572.43 509.74 582.74 459.27 593.05 499.38 603.36 510.76 613.67 404.08 623.97 336.74 634.28 402.97 644.59 342.05 654.9 483.47 665.21 502.52 675.53 460.23 685.84" style="fill:none;stroke:#6b8e23;stroke-miterlimit:10;stroke-width:7px"/><polyline points="113.17 171.05 94.3 224.2 138.88 167.43 183.26 111.01 105.37 266.39 125.57 251.84 137.94 250.86 97.85 340.75 207.14 171.92 168.72 258.91 91.98 412.29 164.9 306.43 161.87 332.12 199.86 286.77 274.7 177.6 265.96 213.19 262.52 239.6 170.07 420.19 248.46 304.86 266.98 293.23 190.5 446.15 192.19 463.68 239.53 402.13 290.35 334.57 216.44 483.03 297.29 363.45 343.4 304.04 370.69 277.24 243.97 517.17 331.51 386.01 288.02 481.79 274.69 525.34 304.19 494.69 312.7 500.41 388.58 389.43 348.78 478.82 327.94 535.39 477.2 297.32 389.9 468.98 488.7 318.31 457.69 392.49 498.23 342.73 516.08 332.26 440.66 483.35 396.32 580.61 457.5 495.1 418.24 583.57 538.82 395.18 562.73 374.23 538.18 437.2 507.64 510.56 559.24 441.66 535.32 503.55 512.63 563.3 527.05 558.79 486.81 648.95 569.61 526 517.35 636.98 517.96 656.38 540.24 638.24 665.52 441.72 669.66 455 544.59 692.09 565.05 677.12 624.66 594.33 683.46 512.95 645.96 598.37 663.99 587.6 600.2 718.55 724.93 522.99 728.04 538.06 661.42 673.92 720.14 592.68 644.05 744.93 694.56 677.91 773.64 561.41 794.78 545.26 833.69 498.37 695.92 757.46" style="fill:none;stroke:#6b8e23;stroke-miterlimit:10;stroke-width:7px"/><polyline points="282.82 48.64 239.91 85.23 306.9 58.36 373.55 31.69 228.4 127.31 253.17 124.81 264.37 130.14 184.71 187.94 363.77 96.37 287 152.5 143.85 246.96 259.93 191.75 244.47 212.48 300.04 192.2 419.44 135.07 394.08 161.53 377.89 182.68 207.53 292.85 333.09 232.16 354.94 231.35 212.24 325.55 204.95 341.57 276.72 311.94 354.5 278.84 216.27 370.45 346.07 307.32 415.72 278.92 452.75 269.36 223.04 413.79 364.43 343.96 278.88 405.17 245.56 436.22 286.43 424.43 290.94 433.63 412.15 375.46 332.99 432.99 286.65 471.55 534.95 340 373.52 445.02 534.41 363.93 470.46 412.67 530.46 389.84 551.15 389.71 410.29 482.84 323.26 544.9 419 501.44 340.76 558.42 539.38 455.56 570.56 449.37 517.82 491.64 454.69 539.9 533.82 506.03 482.17 547.66 432.64 588.07 447.39 591.37 367.46 649.33 500.64 584.25 399.89 654.23 390.72 671.34 419.08 666.77 625.84 559.22 622.78 572.79 395.93 715.58 421.13 712.84 514.15 670.95 605.76 629.87 530.57 685.1 551.57 684.79 430.86 766.3 636.65 659.3 631.82 673.91 506.19 758.26 597.66 717.26 455.64 811.07 532.9 778.28 659.63 716.94 686.01 713.52 743.15 692.36 494.3 847.86" style="fill:none;stroke:#6b8e23;stroke-miterlimit:10;stroke-width:7px"/><polyline points="490.95 27.45 435.49 37.68 506.95 47.91 578 58.14 404.48 68.37 427.19 78.59 434.23 88.81 336.33 99.04 537.19 109.27 442.64 119.49 271.44 129.72 399.57 139.94 375.82 150.16 434.08 160.39 566.05 170.61 530.86 180.84 506.26 191.07 303.64 201.29 442.72 211.52 462.05 221.74 291.37 231.97 277.05 242.2 354.01 252.43 437.93 262.65 272.41 272.88 416.39 283.1 490.9 293.33 527.75 303.56 256.61 313.79 413.96 324.01 309.27 334.24 264.89 344.47 306.18 354.7 305.49 364.93 439.54 375.16 342.22 385.39 282.81 395.62 563.62 405.84 371.31 416.07 551.19 426.3 471.44 436.53 534.81 446.76 552.8 456.99 384.25 467.22 277.84 477.45 382.49 487.68 286.24 497.91 509.68 508.14 539.78 518.37 472.96 528.6 394.17 538.83 479.63 549.06 414.08 559.29 350.99 569.52 362.1 579.75 263.9 589.98 411.79 600.22 289.54 610.45 273.05 620.68 299.89 630.9 532.72 641.13 523.29 651.36 255.44 661.59 278.63 671.82 380.13 682.05 480.01 692.29 387.28 702.52 405.62 712.75 260.32 722.98 492.05 733.22 480.55 743.45 329.58 753.68 429.3 763.92 259.4 774.15 342.7 784.38 483.13 794.62 507.69 804.85 567.75 815.1 274.49 825.34" style="fill:none;stroke:#6b8e23;stroke-miterlimit:10;stroke-width:7px"/><polyline points="681.79 113.17 628.65 94.3 685.42 138.88 741.83 183.26 586.45 105.37 601 125.57 601.99 137.94 512.09 97.85 680.93 207.14 593.93 168.72 440.56 91.98 546.41 164.9 520.73 161.87 566.07 199.86 675.25 274.7 639.66 265.96 613.24 262.52 432.66 170.07 547.99 248.46 559.62 266.98 406.69 190.5 389.17 192.19 450.71 239.53 518.27 290.35 369.82 216.44 489.39 297.29 548.81 343.4 575.61 370.69 335.68 243.97 466.84 331.51 371.06 288.02 327.51 274.69 358.15 304.19 352.44 312.7 463.42 388.58 374.02 348.78 317.46 327.94 555.53 477.2 383.87 389.9 534.54 488.7 460.36 457.69 510.12 498.23 520.58 516.08 369.5 440.66 272.24 396.32 357.75 457.5 269.28 418.24 457.67 538.82 478.62 562.73 415.64 538.18 342.28 507.64 411.19 559.24 349.3 535.32 289.54 512.63 294.06 527.05 203.9 486.81 326.85 569.61 215.87 517.35 196.47 517.96 214.6 540.24 411.13 665.52 397.85 669.66 160.76 544.59 175.73 565.05 258.52 624.66 339.9 683.46 254.48 645.96 265.24 663.99 134.3 600.2 329.86 724.93 314.79 728.04 178.93 661.42 260.16 720.14 107.92 644.05 174.94 694.56 291.44 773.64 307.58 794.78 354.48 833.69 95.39 695.92" style="fill:none;stroke:#6b8e23;stroke-miterlimit:10;stroke-width:7px"/><polyline points="804.21 282.82 767.62 239.91 794.49 306.9 821.15 373.55 725.54 228.4 728.04 253.17 722.7 264.37 664.9 184.71 756.47 363.77 700.34 287 605.89 143.85 661.1 259.93 640.37 244.47 660.65 300.04 717.77 419.44 691.32 394.08 670.16 377.89 560 207.53 620.68 333.09 621.5 354.94 527.3 212.24 511.28 204.95 540.9 276.72 574 354.5 482.39 216.27 545.52 346.07 573.92 415.72 583.49 452.75 439.06 223.04 508.88 364.43 447.68 278.88 416.63 245.56 428.42 286.43 419.21 290.94 477.38 412.15 419.86 332.99 381.3 286.65 512.84 534.95 407.83 373.52 488.91 534.41 440.18 470.46 463 530.46 463.14 551.15 370 410.29 307.94 323.26 351.41 419 294.42 340.76 397.28 539.38 403.47 570.56 361.21 517.82 312.95 454.69 346.82 533.82 305.18 482.17 264.78 432.64 261.48 447.39 203.51 367.46 268.6 500.64 198.61 399.89 181.5 390.72 186.07 419.08 293.63 625.84 280.06 622.78 137.27 395.93 140 421.13 181.9 514.15 222.97 605.76 167.75 530.57 168.06 551.57 86.54 430.86 193.54 636.65 178.93 631.82 94.58 506.19 135.58 597.66 41.77 455.64 74.56 532.9 135.91 659.63 139.32 686.01 160.49 743.15 4.99 494.3" style="fill:none;stroke:#6b8e23;stroke-miterlimit:10;stroke-width:7px"/><polyline points="825.39 490.95 815.16 435.49 804.94 506.95 794.71 578 784.48 404.48 774.26 427.19 764.03 434.23 753.81 336.33 743.58 537.19 733.35 442.64 723.13 271.44 712.9 399.57 702.68 375.82 692.46 434.08 682.23 566.05 672 530.86 661.78 506.26 651.55 303.64 641.33 442.72 631.1 462.05 620.88 291.37 610.65 277.05 600.42 354.01 590.19 437.93 579.97 272.41 569.74 416.39 559.51 490.9 549.28 527.75 539.06 256.61 528.83 413.96 518.6 309.27 508.37 264.89 498.14 306.18 487.92 305.49 477.69 439.54 467.46 342.22 457.23 282.81 447 563.62 436.77 371.31 426.54 551.19 416.32 471.44 406.09 534.81 395.86 552.8 385.63 384.25 375.4 277.84 365.17 382.49 354.94 286.24 344.71 509.68 334.48 539.78 324.25 472.96 314.02 394.17 303.79 479.63 293.56 414.08 283.32 350.99 273.09 362.1 262.86 263.9 252.63 411.79 242.4 289.54 232.17 273.05 221.94 299.89 211.71 532.72 201.48 523.29 191.25 255.44 181.02 278.63 170.79 380.13 160.56 480.01 150.33 387.28 140.1 405.62 129.86 260.32 119.63 492.05 109.39 480.55 99.16 329.58 88.93 429.3 78.7 259.4 68.46 342.7 58.23 483.13 47.99 507.69 37.75 567.75 27.51 274.49" style="fill:none;stroke:#6b8e23;stroke-miterlimit:10;stroke-width:7px"/><polyline points="739.67 681.79 758.55 628.65 713.96 685.42 669.58 741.83 747.48 586.45 727.27 601 714.9 601.99 754.99 512.09 645.71 680.93 684.12 593.93 760.87 440.56 687.95 546.41 690.97 520.73 652.99 566.07 578.15 675.25 586.88 639.66 590.32 613.24 682.78 432.66 604.38 547.99 585.87 559.62 662.35 406.69 660.65 389.17 613.31 450.71 562.5 518.27 636.4 369.82 555.56 489.39 509.44 548.81 482.16 575.61 608.87 335.68 521.34 466.84 564.83 371.06 578.16 327.51 548.66 358.15 540.15 352.44 464.26 463.42 504.06 374.02 524.91 317.46 375.65 555.53 462.94 383.87 364.14 534.54 395.16 460.36 354.62 510.12 336.76 520.58 412.18 369.5 456.52 272.24 395.34 357.75 434.61 269.28 314.03 457.67 290.12 478.62 314.67 415.64 345.2 342.28 293.61 411.19 317.53 349.3 340.21 289.54 325.8 294.06 366.04 203.9 283.23 326.85 335.49 215.87 334.88 196.47 312.6 214.6 187.33 411.13 183.19 397.85 308.25 160.76 287.8 175.73 228.19 258.52 169.38 339.9 206.89 254.48 188.86 265.24 252.64 134.3 127.92 329.86 124.8 314.79 191.43 178.93 132.71 260.16 208.79 107.92 158.28 174.94 79.2 291.44 58.06 307.58 19.16 354.48 156.92 95.39" style="fill:none;stroke:#6b8e23;stroke-miterlimit:10;stroke-width:7px"/><polyline points="570.02 804.21 612.94 767.62 545.94 794.49 479.3 821.15 624.45 725.54 599.68 728.04 588.47 722.7 668.14 664.9 489.07 756.47 565.84 700.34 709 605.89 592.91 661.1 608.38 640.37 552.81 660.65 433.41 717.77 458.77 691.32 474.95 670.16 645.32 560 519.76 620.68 497.91 621.5 640.61 527.3 647.9 511.28 576.13 540.9 498.35 574 636.57 482.39 506.77 545.52 437.13 573.92 400.1 583.49 629.8 439.06 488.42 508.88 573.97 447.68 607.28 416.63 566.42 428.42 561.9 419.21 440.69 477.38 519.86 419.86 566.2 381.3 317.9 512.84 479.33 407.83 318.43 488.91 382.38 440.18 322.39 463 301.7 463.14 442.55 370 529.59 307.94 433.85 351.41 512.08 294.42 313.46 397.28 282.28 403.47 335.03 361.21 398.16 312.95 319.02 346.82 370.68 305.18 420.2 264.78 405.46 261.48 485.39 203.51 352.2 268.6 452.95 198.61 462.12 181.5 433.76 186.07 227.01 293.63 230.06 280.06 456.92 137.27 431.72 140 338.69 181.9 247.08 222.97 322.27 167.75 301.28 168.06 421.99 86.54 216.19 193.54 221.03 178.93 346.66 94.58 255.19 135.58 397.2 41.77 319.95 74.56 193.22 135.91 166.83 139.32 109.69 160.49 358.55 4.99" style="fill:none;stroke:#6b8e23;stroke-miterlimit:10;stroke-width:7px"/><polyline points="361.89 825.39 417.35 815.16 345.9 804.94 274.85 794.71 448.36 784.48 425.66 774.26 418.62 764.03 516.51 753.81 315.65 743.58 410.2 733.35 581.41 723.13 453.27 712.9 477.03 702.68 418.76 692.46 286.79 682.23 321.99 672 346.58 661.78 549.2 651.55 410.12 641.33 390.79 631.1 561.47 620.88 575.8 610.65 498.83 600.42 414.92 590.19 580.43 579.97 436.46 569.74 361.94 559.51 325.1 549.28 596.24 539.06 438.88 528.83 543.58 518.6 587.95 508.37 546.66 498.14 547.36 487.92 413.3 477.69 510.62 467.46 570.03 457.23 289.23 447 481.54 436.77 301.65 426.54 381.4 416.32 318.04 406.09 300.05 395.86 468.6 385.63 575 375.4 470.36 365.17 566.61 354.94 343.17 344.71 313.07 334.48 379.88 324.25 458.68 314.02 373.21 303.79 438.77 293.56 501.86 283.32 490.74 273.09 588.94 262.86 441.06 252.63 563.3 242.4 579.8 232.17 552.95 221.94 320.12 211.71 329.55 201.48 597.41 191.25 574.22 181.02 472.71 170.79 372.83 160.56 465.56 150.33 447.23 140.1 592.52 129.86 360.8 119.63 372.29 109.39 523.26 99.16 423.55 88.93 593.44 78.7 510.14 68.46 369.71 58.23 345.16 47.99 285.1 37.75 578.36 27.51" style="fill:none;stroke:#6b8e23;stroke-miterlimit:10;stroke-width:7px"/><polyline points="171.05 739.67 224.2 758.55 167.43 713.96 111.01 669.58 266.39 747.48 251.84 727.27 250.86 714.9 340.75 754.99 171.92 645.71 258.91 684.12 412.29 760.87 306.43 687.95 332.12 690.97 286.77 652.99 177.6 578.15 213.19 586.88 239.6 590.32 420.19 682.78 304.86 604.38 293.23 585.87 446.15 662.35 463.68 660.65 402.13 613.31 334.57 562.5 483.03 636.4 363.45 555.56 304.04 509.44 277.24 482.16 517.17 608.87 386.01 521.34 481.79 564.83 525.34 578.16 494.69 548.66 500.41 540.15 389.43 464.26 478.82 504.06 535.39 524.91 297.32 375.65 468.98 462.94 318.31 364.14 392.49 395.16 342.73 354.62 332.26 336.76 483.35 412.18 580.61 456.52 495.1 395.34 583.57 434.61 395.18 314.03 374.23 290.12 437.2 314.67 510.56 345.2 441.66 293.61 503.55 317.53 563.3 340.21 558.79 325.8 648.95 366.04 526 283.23 636.98 335.49 656.38 334.88 638.24 312.6 441.72 187.33 455 183.19 692.09 308.25 677.12 287.8 594.33 228.19 512.95 169.38 598.37 206.89 587.6 188.86 718.55 252.64 522.99 127.92 538.06 124.8 673.92 191.43 592.68 132.71 744.93 208.79 677.91 158.28 561.41 79.2 545.26 58.06 498.37 19.16 757.46 156.92" style="fill:none;stroke:#6b8e23;stroke-miterlimit:10;stroke-width:7px"/><polyline points="48.64 570.02 85.23 612.94 58.36 545.94 31.69 479.3 127.31 624.45 124.81 599.68 130.14 588.47 187.94 668.14 96.37 489.07 152.5 565.84 246.96 709 191.75 592.91 212.48 608.38 192.2 552.81 135.07 433.41 161.53 458.77 182.68 474.95 292.85 645.32 232.16 519.76 231.35 497.91 325.55 640.61 341.57 647.9 311.94 576.13 278.84 498.35 370.45 636.57 307.32 506.77 278.92 437.13 269.36 400.1 413.79 629.8 343.96 488.42 405.17 573.97 436.22 607.28 424.43 566.42 433.63 561.9 375.46 440.69 432.99 519.86 471.55 566.2 340 317.9 445.02 479.33 363.93 318.43 412.67 382.38 389.84 322.39 389.71 301.7 482.84 442.55 544.9 529.59 501.44 433.85 558.42 512.08 455.56 313.46 449.37 282.28 491.64 335.03 539.9 398.16 506.03 319.02 547.66 370.68 588.07 420.2 591.37 405.46 649.33 485.39 584.25 352.2 654.23 452.95 671.34 462.12 666.77 433.76 559.22 227.01 572.79 230.06 715.58 456.92 712.84 431.72 670.95 338.69 629.87 247.08 685.1 322.27 684.79 301.28 766.3 421.99 659.3 216.19 673.91 221.03 758.26 346.66 717.26 255.19 811.07 397.2 778.28 319.95 716.94 193.22 713.52 166.83 692.36 109.69 847.86 358.55" style="fill:none;stroke:#6b8e23;stroke-miterlimit:10;stroke-width:7px"/><polyline points="27.45 361.89 37.68 417.35 47.91 345.9 58.14 274.85 68.37 448.36 78.59 425.66 88.81 418.62 99.04 516.51 109.27 315.65 119.49 410.2 129.72 581.41 139.94 453.27 150.16 477.03 160.39 418.76 170.61 286.79 180.84 321.99 191.07 346.58 201.29 549.2 211.52 410.12 221.74 390.79 231.97 561.47 242.2 575.8 252.43 498.83 262.65 414.92 272.88 580.43 283.1 436.46 293.33 361.94 303.56 325.1 313.79 596.24 324.01 438.88 334.24 543.58 344.47 587.95 354.7 546.66 364.93 547.36 375.16 413.3 385.39 510.62 395.62 570.03 405.84 289.23 416.07 481.54 426.3 301.65 436.53 381.4 446.76 318.04 456.99 300.05 467.22 468.6 477.45 575 487.68 470.36 497.91 566.61 508.14 343.17 518.37 313.07 528.6 379.88 538.83 458.68 549.06 373.21 559.29 438.77 569.52 501.86 579.75 490.74 589.98 588.94 600.22 441.06 610.45 563.3 620.68 579.8 630.9 552.95 641.13 320.12 651.36 329.55 661.59 597.41 671.82 574.22 682.05 472.71 692.29 372.83 702.52 465.56 712.75 447.23 722.98 592.52 733.22 360.8 743.45 372.29 753.68 523.26 763.92 423.55 774.15 593.44 784.38 510.14 794.62 369.71 804.85 345.16 815.1 285.1 825.34 578.36" style="fill:none;stroke:#6b8e23;stroke-miterlimit:10;stroke-width:7px"/><path d="M932,352c22.92,12.21,31.37,41.12,18.88,64.57s-41.2,32.56-64.12,20.35-59.26-86.21-59.26-86.21S909.11,339.79,932,352Z" transform="translate(-546.25 -18.16)" style="fill:#7cfc00"/><path d="M840,357.09q15.19,8.34,30.76,16c10.38,5.09,20.77,10.15,31.06,15.4l61.66,31.68-2.64,4.94L930,409.35q-15.45-7.85-30.6-16.26c-10.1-5.61-20-11.62-29.81-17.74s-19.74-12.09-29.87-17.64Zm0,0c10.26,5.32,20.74,10.21,31.3,15s21.06,9.6,31.34,14.87,20.48,10.7,30.57,16.33l30.27,16.89-2.64,4.94L900.2,391.54c-10.1-5.61-20.09-11.42-30.1-17.19S850,363,839.7,357.71Z" transform="translate(-546.25 -18.16)" style="fill:#386105"/><polygon points="380.12 386.26 375.96 336.69 383.1 385.92 380.12 386.26" style="fill:#386105"/><polygon points="361.38 376.78 358.36 336.69 364.36 376.44 361.38 376.78" style="fill:#386105"/><polygon points="338.64 364.07 338.24 333.49 341.64 363.88 338.64 364.07" style="fill:#386105"/><polygon points="325.51 357.21 323.47 333.82 328.47 356.76 325.51 357.21" style="fill:#386105"/><polygon points="381.88 388.22 337.03 409.75 380.5 385.56 381.88 388.22" style="fill:#386105"/><polygon points="363.56 377.95 327.22 395.14 362.18 375.29 363.56 377.95" style="fill:#386105"/><polygon points="340.46 366.1 313.34 380.23 338.94 363.51 340.46 366.1" style="fill:#386105"/><polygon points="327.2 359.14 305.38 367.78 325.92 356.43 327.2 359.14" style="fill:#386105"/><path d="M1030.58,353c-22.92,12.21-31.37,41.12-18.87,64.57s41.2,32.56,64.12,20.35,59.25-86.21,59.25-86.21S1053.5,340.79,1030.58,353Z" transform="translate(-546.25 -18.16)" style="fill:#7cfc00"/><path d="M1122.9,358.71q-15.39,7.95-30.4,16.64c-10,5.77-20,11.58-30.1,17.19l-60.67,33.53-2.63-4.94,30.27-16.89q15.12-8.44,30.56-16.33c10.28-5.27,20.79-10.12,31.35-14.87s21-9.63,31.29-15Zm0,0c-10.13,5.55-20,11.52-29.86,17.64s-19.71,12.13-29.82,17.74-20.3,11-30.59,16.26l-30.9,15.72-2.63-4.94,61.65-31.68c10.29-5.25,20.69-10.31,31.06-15.4s20.64-10.4,30.76-16Z" transform="translate(-546.25 -18.16)" style="fill:#386105"/><polygon points="487.01 386.92 494.15 337.69 489.99 387.26 487.01 386.92" style="fill:#386105"/><polygon points="505.75 377.44 511.75 337.69 508.73 377.78 505.75 377.44" style="fill:#386105"/><polygon points="528.47 364.88 531.87 334.49 531.47 365.07 528.47 364.88" style="fill:#386105"/><polygon points="541.64 357.76 546.64 334.82 544.6 358.21 541.64 357.76" style="fill:#386105"/><polygon points="489.62 386.56 533.08 410.75 488.24 389.22 489.62 386.56" style="fill:#386105"/><polygon points="507.94 376.29 542.89 396.14 506.55 378.95 507.94 376.29" style="fill:#386105"/><polygon points="531.17 364.51 556.77 381.23 529.65 367.1 531.17 364.51" style="fill:#386105"/><polygon points="544.19 357.43 564.74 368.78 542.91 360.14 544.19 357.43" style="fill:#386105"/><path d="M982.8,570.12c14.91-21.26,9.37-50.87-12.38-66.13s-51.48-10.4-66.39,10.86-13.84,103.69-13.84,103.69S967.89,591.37,982.8,570.12Z" transform="translate(-546.25 -18.16)" style="fill:#7cfc00"/><path d="M897.88,606.79Q908,592.73,917.46,578.2c6.32-9.68,12.6-19.38,19.07-29l38.94-57.35,4.58,3.21L960.7,523.87q-9.68,14.37-19.87,28.39c-6.79,9.35-14,18.43-21.23,27.44s-14.4,18.11-21.14,27.5Zm0,0c6.53-9.53,12.66-19.34,18.65-29.24s12.09-19.74,18.57-29.31,13.11-19,19.93-28.35l20.44-28,4.58,3.21L939.4,551.26c-6.8,9.34-13.78,18.55-20.73,27.78S905,597.66,898.46,607.2Z" transform="translate(-546.25 -18.16)" style="fill:#386105"/><polygon points="410.61 506.73 426.51 553.86 407.79 507.77 410.61 506.73" style="fill:#386105"/><polygon points="398.18 523.65 410.81 561.82 395.37 524.7 398.18 523.65" style="fill:#386105"/><polygon points="383.6 545.14 394.32 573.78 380.84 546.33 383.6 545.14" style="fill:#386105"/><polygon points="375.08 557.45 380.99 580.16 372.23 558.38 375.08 557.45" style="fill:#386105"/><polygon points="408.44 508.23 358.74 506.31 408.47 505.23 408.44 508.23" style="fill:#386105"/><polygon points="396.75 525.67 356.6 523.78 396.78 522.67 396.75 525.67" style="fill:#386105"/><polygon points="381.36 546.69 350.96 543.36 381.54 543.7 381.36 546.69" style="fill:#386105"/><polygon points="372.96 558.89 349.49 558.07 372.87 555.89 372.96 558.89" style="fill:#386105"/><ellipse cx="433.26" cy="421.66" rx="81.21" ry="57.73" style="fill:gold"/><text transform="translate(187.84 919.94)" style="font-size:80px;fill:#8b4513;font-family:Georgia">Nurture Nest</text></svg>